<svg id="svg" version="1.1" xmlns="http://www.w3.org/2000/svg" xmlns:xlink="http://www.w3.org/1999/xlink" width="400" height="236.9318181818182" viewBox="0, 0, 400,236.9318181818182"><g id="svgg"><path id="path0" d="M193.845 27.760 C 172.517 30.335,155.404 43.442,147.847 62.991 C 146.165 67.343,144.318 75.731,144.318 79.019 C 144.318 79.341,145.510 79.356,170.170 79.356 L 196.023 79.356 196.023 53.409 C 196.023 39.138,196.001 27.472,195.975 27.485 C 195.949 27.498,194.991 27.621,193.845 27.760 M191.288 53.788 L 191.288 74.621 170.451 74.621 L 149.614 74.621 149.705 74.195 C 149.755 73.961,149.892 73.258,150.010 72.633 C 153.075 56.417,165.262 41.944,181.091 35.724 C 184.143 34.525,189.446 33.045,190.956 32.971 C 191.270 32.955,191.288 34.067,191.288 53.788 M144.320 86.411 C 144.416 99.642,153.192 116.532,164.773 125.774 C 173.397 132.657,186.679 137.879,195.559 137.879 L 196.023 137.879 196.023 112.027 L 196.023 86.174 170.170 86.174 C 149.614 86.174,144.319 86.223,144.320 86.411 M203.030 112.027 L 203.030 137.879 203.462 137.879 C 205.663 137.879,212.105 136.706,215.413 135.704 C 237.097 129.131,252.043 111.058,254.613 88.305 L 254.853 86.174 228.942 86.174 L 203.030 86.174 203.030 112.027 M191.288 111.742 C 191.288 123.201,191.247 132.576,191.196 132.576 C 189.607 132.576,182.187 130.333,178.861 128.846 C 163.791 122.114,152.453 107.587,149.735 91.525 L 149.631 90.909 170.459 90.909 L 191.288 90.909 191.288 111.742 M249.336 91.714 C 246.120 111.757,228.791 129.043,208.475 132.473 L 207.765 132.593 207.765 111.751 L 207.765 90.909 228.615 90.909 L 249.465 90.909 249.336 91.714 M162.311 153.564 C 157.889 155.452,157.804 155.538,159.280 156.656 C 160.901 157.884,160.795 156.719,160.795 173.317 C 160.795 190.059,160.952 188.575,159.098 189.373 C 158.413 189.667,158.144 189.889,158.144 190.157 C 158.144 190.521,158.300 190.530,164.489 190.530 L 170.833 190.530 170.833 190.081 C 170.833 189.671,170.731 189.621,169.650 189.499 C 166.630 189.159,166.772 189.651,166.707 179.311 L 166.652 170.648 167.734 169.957 C 173.349 166.365,177.804 167.527,178.953 172.884 C 179.305 174.528,179.244 187.748,178.881 188.451 C 178.567 189.057,178.052 189.397,177.178 189.576 C 176.782 189.657,176.592 189.819,176.549 190.111 L 176.489 190.530 182.941 190.530 L 189.394 190.530 189.394 190.057 C 189.394 189.691,189.296 189.583,188.964 189.583 C 188.232 189.583,185.960 188.882,185.632 188.555 C 185.358 188.280,185.309 187.275,185.209 179.776 C 185.087 170.580,185.038 170.130,183.951 168.132 C 181.368 163.387,174.094 163.311,167.992 167.965 L 166.761 168.904 166.705 163.666 C 166.674 160.785,166.737 157.026,166.845 155.313 C 167.106 151.162,167.542 151.330,162.311 153.564 M262.311 153.570 C 257.826 155.480,257.785 155.524,259.337 156.733 C 260.851 157.911,260.773 157.034,260.784 173.011 C 260.795 189.591,260.855 189.057,258.912 189.581 C 258.345 189.733,258.144 189.885,258.144 190.159 C 258.144 190.520,258.312 190.530,264.489 190.530 L 270.833 190.530 270.833 190.079 C 270.833 189.671,270.728 189.614,269.744 189.492 C 268.303 189.313,267.529 188.972,267.108 188.329 C 266.676 187.671,266.497 165.975,266.851 157.307 C 267.115 150.848,267.657 151.294,262.311 153.570 M322.588 153.569 C 318.269 155.416,318.113 155.567,319.508 156.535 C 319.926 156.824,320.458 157.368,320.692 157.744 L 321.117 158.428 321.117 173.106 C 321.117 190.005,321.214 189.167,319.223 189.576 C 318.827 189.657,318.637 189.819,318.595 190.111 L 318.534 190.530 324.703 190.530 L 330.871 190.530 330.871 190.072 C 330.871 189.706,330.747 189.589,330.256 189.491 C 327.023 188.845,327.083 188.957,327.083 183.650 L 327.083 179.592 328.140 178.722 L 329.197 177.852 329.809 178.651 C 330.146 179.091,331.846 181.308,333.588 183.579 C 335.338 185.859,336.804 187.952,336.865 188.256 C 336.993 188.894,336.120 189.581,335.180 189.583 C 334.751 189.583,334.659 189.667,334.659 190.057 L 334.659 190.530 341.098 190.530 L 347.538 190.530 347.535 190.104 C 347.532 189.767,347.304 189.580,346.446 189.211 C 344.568 188.402,344.228 188.025,337.158 178.904 C 335.251 176.444,333.740 174.350,333.801 174.251 C 333.916 174.066,338.604 170.239,340.502 168.781 C 341.683 167.874,344.082 166.600,345.549 166.102 C 346.247 165.865,346.512 165.673,346.557 165.371 L 346.617 164.962 341.206 164.962 L 335.795 164.962 335.795 165.413 C 335.795 165.731,335.956 165.930,336.344 166.090 C 338.693 167.063,338.221 168.223,334.059 171.706 C 332.462 173.042,330.260 174.901,329.167 175.837 L 327.178 177.537 327.129 167.255 C 327.102 161.599,327.154 155.893,327.244 154.575 C 327.469 151.274,327.792 151.343,322.588 153.569 M238.163 153.126 C 227.384 154.862,220.652 163.576,221.738 174.386 C 222.553 182.499,226.597 187.841,233.731 190.228 C 239.043 192.006,247.192 191.734,252.418 189.606 L 253.693 189.087 254.501 186.636 C 255.387 183.948,255.406 183.733,254.785 183.504 C 254.414 183.367,254.268 183.483,253.625 184.429 C 251.724 187.228,250.986 187.765,247.917 188.580 C 236.638 191.574,228.560 183.830,229.029 170.473 C 229.373 160.677,234.430 154.930,242.708 154.930 C 248.020 154.930,250.970 156.635,253.059 160.913 C 253.996 162.832,254.034 162.879,254.661 162.879 L 255.303 162.879 255.303 158.144 L 255.303 153.409 254.670 153.409 C 254.266 153.409,253.905 153.554,253.675 153.808 C 253.477 154.028,253.080 154.375,252.793 154.579 L 252.271 154.951 250.804 154.388 C 247.309 153.046,241.971 152.513,238.163 153.126 M26.705 154.053 C 26.705 154.467,26.805 154.520,27.817 154.637 C 29.118 154.788,30.030 155.283,30.355 156.013 C 30.703 156.793,30.689 185.555,30.340 186.706 C 29.952 187.989,28.936 188.972,27.623 189.337 C 26.676 189.601,26.515 189.710,26.515 190.088 L 26.515 190.530 31.818 190.530 L 37.121 190.530 37.121 190.060 C 37.121 189.712,36.999 189.565,36.648 189.492 C 36.387 189.438,35.940 189.345,35.653 189.284 C 34.630 189.069,33.869 188.421,33.356 187.327 L 32.860 186.269 32.801 173.205 C 32.768 166.019,32.789 160.187,32.846 160.245 C 32.935 160.334,35.569 165.792,42.250 179.731 C 48.006 191.740,47.619 191.004,48.185 191.004 C 48.645 191.004,48.765 190.867,49.184 189.867 C 49.622 188.821,55.705 176.373,61.447 164.773 L 63.837 159.943 63.784 173.674 C 63.721 190.127,63.995 188.829,60.451 189.414 C 59.213 189.619,59.091 189.679,59.091 190.085 L 59.091 190.530 67.235 190.530 L 75.379 190.530 75.379 190.080 C 75.379 189.663,75.267 189.612,73.855 189.393 C 72.166 189.130,71.278 188.655,70.833 187.777 C 70.326 186.774,70.415 156.953,70.928 156.079 C 71.430 155.225,72.397 154.751,73.931 154.608 C 75.093 154.500,75.189 154.457,75.189 154.045 L 75.189 153.598 69.934 153.602 L 64.678 153.606 57.782 167.665 C 53.989 175.397,50.836 181.782,50.774 181.853 C 50.713 181.925,48.790 178.047,46.501 173.236 C 44.213 168.425,41.687 163.125,40.888 161.458 C 40.090 159.792,38.922 157.341,38.292 156.013 L 37.148 153.598 31.926 153.598 L 26.705 153.598 26.705 154.053 M122.528 164.180 C 122.065 164.479,120.386 165.888,118.797 167.312 L 115.909 169.900 115.909 166.952 C 115.909 163.319,116.142 163.447,112.460 165.054 C 110.867 165.749,109.117 166.493,108.570 166.708 C 107.216 167.239,107.207 167.733,108.535 168.550 C 110.105 169.516,110.056 169.154,109.996 179.474 L 109.943 188.480 109.419 188.930 C 109.131 189.178,108.556 189.472,108.141 189.584 C 107.587 189.733,107.386 189.886,107.386 190.159 C 107.386 190.521,107.559 190.530,114.489 190.530 L 121.591 190.530 121.591 190.075 C 121.591 189.667,121.487 189.606,120.597 189.496 C 115.770 188.899,115.934 189.259,115.920 179.217 L 115.909 171.596 116.998 170.738 C 119.554 168.724,120.852 168.556,123.636 169.878 C 125.652 170.837,125.577 170.864,126.229 168.947 C 126.837 167.159,126.844 167.234,125.920 165.851 C 124.319 163.455,123.940 163.268,122.528 164.180 M133.144 165.224 C 128.789 167.061,128.578 167.292,130.283 168.341 C 132.048 169.427,131.906 168.133,131.965 183.666 C 132.027 199.830,132.095 199.268,130.003 199.795 C 129.295 199.973,129.167 200.078,129.167 200.476 L 129.167 200.947 135.985 200.947 L 142.803 200.947 142.803 200.413 C 142.803 199.883,142.790 199.877,141.077 199.649 C 137.856 199.220,137.879 199.259,137.879 194.132 L 137.879 190.133 139.063 190.284 C 150.500 191.748,157.922 186.097,157.519 176.231 C 157.106 166.092,148.383 161.626,139.069 166.783 L 137.893 167.435 137.838 165.583 C 137.769 163.205,137.903 163.216,133.144 165.224 M313.509 164.333 C 313.006 164.716,311.402 166.097,309.943 167.403 L 307.292 169.777 307.197 166.851 C 307.081 163.268,307.517 163.398,302.652 165.490 C 298.164 167.419,298.058 167.527,299.693 168.511 C 301.389 169.531,301.326 169.125,301.326 179.059 C 301.326 189.303,301.352 189.164,299.337 189.576 C 298.941 189.657,298.751 189.819,298.708 190.111 L 298.648 190.530 305.669 190.530 L 312.689 190.530 312.689 190.073 C 312.689 189.681,312.577 189.600,311.884 189.499 C 306.928 188.776,307.197 189.362,307.197 179.282 L 307.197 171.620 308.093 170.854 C 310.557 168.748,312.062 168.533,314.922 169.878 C 316.917 170.816,316.809 170.854,317.490 168.976 C 318.127 167.221,318.134 167.301,317.227 165.942 C 315.541 163.417,315.011 163.188,313.509 164.333 M282.008 164.299 C 276.735 165.476,272.917 168.237,272.917 170.870 C 272.917 171.371,272.981 171.781,273.059 171.781 C 273.137 171.781,274.458 171.506,275.994 171.170 L 278.788 170.558 278.788 169.648 C 278.788 165.257,284.265 164.404,286.364 168.469 L 287.027 169.753 287.093 173.563 L 287.159 177.373 284.441 177.897 C 274.327 179.846,272.195 181.206,272.383 185.588 C 272.625 191.226,278.473 192.856,286.076 189.403 C 286.950 189.006,287.422 188.877,287.471 189.022 C 288.371 191.721,293.022 192.007,296.594 189.581 C 297.985 188.637,298.052 188.521,297.536 187.971 L 297.115 187.524 296.353 188.028 C 294.931 188.969,293.587 188.592,293.184 187.140 C 293.071 186.735,292.994 183.187,292.993 178.397 C 292.992 168.132,292.904 167.614,290.868 165.831 C 288.995 164.191,285.328 163.557,282.008 164.299 M355.114 164.458 C 347.301 166.785,343.909 176.265,347.914 184.576 C 352.246 193.563,365.502 193.139,371.963 183.807 L 372.750 182.670 372.267 182.255 L 371.784 181.839 370.693 182.882 C 364.357 188.935,355.944 187.808,352.281 180.415 C 351.860 179.565,351.515 178.774,351.515 178.660 C 351.515 178.545,355.270 176.469,359.859 174.048 C 366.022 170.795,368.175 169.573,368.097 169.371 C 368.040 169.221,367.992 169.027,367.992 168.940 C 367.992 168.853,367.789 168.711,367.540 168.624 C 367.291 168.537,366.783 168.100,366.412 167.653 C 363.708 164.399,359.401 163.182,355.114 164.458 M79.119 165.024 L 75.568 165.412 75.577 165.897 C 75.584 166.292,75.769 166.471,76.571 166.856 C 78.073 167.577,78.024 167.278,78.028 175.886 C 78.030 184.005,78.167 185.868,78.873 187.428 C 81.073 192.285,87.695 192.634,94.626 188.256 C 95.285 187.840,95.861 187.500,95.905 187.500 C 95.950 187.500,96.048 188.405,96.123 189.511 L 96.260 191.522 97.041 191.417 C 97.471 191.360,99.292 191.160,101.089 190.973 L 104.356 190.634 104.356 190.109 C 104.356 189.672,104.275 189.583,103.873 189.583 C 103.160 189.583,102.282 189.064,102.075 188.520 C 101.812 187.828,101.843 169.563,102.111 166.911 C 102.231 165.731,102.275 164.712,102.208 164.645 C 102.142 164.579,100.063 164.710,97.588 164.935 C 95.112 165.161,92.810 165.345,92.472 165.343 C 91.295 165.339,91.592 166.357,92.850 166.642 C 96.162 167.393,96.023 166.919,96.023 177.430 L 96.023 185.932 94.650 186.507 C 89.926 188.482,87.289 188.515,85.621 186.619 C 84.065 184.852,83.820 182.725,83.959 172.206 L 84.060 164.583 83.365 164.610 C 82.983 164.625,81.072 164.811,79.119 165.024 M186.174 165.254 C 186.174 165.415,186.623 165.991,187.171 166.533 C 188.239 167.590,188.634 168.317,190.605 172.860 C 191.274 174.402,192.902 178.134,194.223 181.155 C 195.544 184.176,197.002 187.519,197.463 188.584 L 198.301 190.519 195.336 195.268 C 191.728 201.044,191.742 200.949,194.551 200.944 L 196.307 200.941 196.770 199.855 C 197.875 197.263,199.900 192.990,203.165 186.364 C 205.089 182.457,207.608 177.301,208.761 174.905 C 211.418 169.387,212.400 167.727,213.723 166.518 C 215.419 164.967,215.410 164.962,210.795 164.962 L 206.818 164.962 206.818 165.421 C 206.818 165.777,206.966 165.929,207.478 166.097 C 209.714 166.836,209.577 168.303,206.695 174.432 C 205.446 177.088,203.877 180.428,203.207 181.853 C 202.537 183.278,201.936 184.386,201.871 184.315 C 201.807 184.244,201.405 183.333,200.978 182.292 C 200.551 181.250,199.639 179.077,198.953 177.462 C 196.930 172.708,195.076 168.038,195.076 167.701 C 195.076 167.125,196.167 166.324,197.261 166.097 C 198.171 165.908,198.295 165.827,198.295 165.422 L 198.295 164.962 192.235 164.962 C 186.898 164.962,186.174 164.997,186.174 165.254 M357.962 166.961 C 359.491 167.725,361.738 170.725,361.190 171.272 C 360.626 171.836,351.040 176.855,350.914 176.652 C 350.612 176.162,350.336 173.693,350.431 172.317 C 350.737 167.845,354.449 165.205,357.962 166.961 M146.642 168.426 C 149.927 170.050,151.709 173.780,151.701 179.017 C 151.689 186.794,147.197 190.440,140.659 187.979 C 137.714 186.871,137.879 187.509,137.879 177.208 L 137.879 168.798 139.157 168.394 C 142.456 167.354,144.491 167.363,146.642 168.426 M287.121 183.217 L 287.121 187.456 286.127 187.854 C 281.853 189.564,278.293 188.218,277.727 184.678 C 277.408 182.678,278.515 181.168,280.871 180.392 C 282.001 180.019,286.252 179.013,286.790 178.991 C 287.096 178.978,287.121 179.300,287.121 183.217 " stroke="none" fill="#047cc4" fill-rule="evenodd"></path><path id="path1" d="M202.942 28.456 C 204.648 43.259,209.464 53.627,219.113 63.271 C 228.490 72.643,239.516 77.764,253.551 79.267 L 254.735 79.393 254.735 53.428 L 254.735 27.462 228.781 27.462 L 202.828 27.462 202.942 28.456 M250.000 53.129 L 250.000 74.060 249.574 73.966 C 249.339 73.914,248.125 73.649,246.875 73.377 C 227.961 69.266,212.233 53.194,208.615 34.280 C 208.446 33.395,208.273 32.564,208.232 32.434 C 208.171 32.245,212.426 32.197,229.078 32.197 L 250.000 32.197 250.000 53.129 " stroke="none" fill="#94cb3c" fill-rule="evenodd"></path><path id="path2" d="" stroke="none" fill="#28a4c8" fill-rule="evenodd"></path><path id="path3" d="" stroke="none" fill="#28a4c8" fill-rule="evenodd"></path><path id="path4" d="" stroke="none" fill="#28a4c8" fill-rule="evenodd"></path></g></svg>